<?xml version="1.0"?>
<svg xmlns="http://www.w3.org/2000/svg" height="512px" viewBox="0 -21 512 512" width="512px" class=""><g><path d="m497 20h-182.761719c-16.09375-12.527344-36.308593-20-58.238281-20s-42.144531 7.472656-58.238281 20h-182.761719c-8.285156 0-15 6.714844-15 15v420c0 8.285156 6.714844 15 15 15h482c8.285156 0 15-6.714844 15-15v-420c0-8.285156-6.714844-15-15-15zm-177.746094 60h-126.507812c6.789062-28.636719 32.574218-50 63.253906-50s56.464844 21.363281 63.253906 50zm-289.253906-30h142.351562c-4.96875 9.199219-8.460937 19.304688-10.164062 30h-11.1875c-8.285156 0-15 6.714844-15 15s6.714844 15 15 15h210c8.285156 0 15-6.714844 15-15s-6.714844-15-15-15h-11.1875c-1.703125-10.695312-5.199219-20.800781-10.164062-30h142.351562v90h-452zm452 390h-452v-270h452zm0 0" data-original="#000000" class="active-path" data-old_color="#ffffff" fill="#ffffff"/><path d="m256 320c8.269531 0 15 6.730469 15 15s-6.730469 15-15 15h-26.84375c-8.28125 0-15 6.714844-15 15s6.71875 15 15 15h11.84375v5c0 8.285156 6.714844 15 15 15s15-6.714844 15-15v-7.578125c17.460938-6.195313 30-22.867187 30-42.421875 0-24.8125-20.1875-45-45-45-8.269531 0-15-6.730469-15-15s6.730469-15 15-15h30c8.285156 0 15-6.714844 15-15s-6.714844-15-15-15h-15v-5c0-8.285156-6.714844-15-15-15s-15 6.714844-15 15v7.578125c-17.460938 6.195313-30 22.867187-30 42.421875 0 24.8125 20.1875 45 45 45zm0 0" data-original="#000000" class="active-path" data-old_color="#ffffff" fill="#ffffff"/></g> </svg>
