<?xml version="1.0"?>
<svg xmlns="http://www.w3.org/2000/svg" height="512px" viewBox="0 -55 512 511" width="512px" class=""><g><path d="m392.691406.5h-273.382812c-65.785156 0-119.308594 53.527344-119.308594 119.324219v259.457031c0 8.089844 4.460938 15.4375 11.636719 19.167969 3.148437 1.636719 6.566406 2.445312 9.972656 2.445312 3.90625 0 7.796875-1.066406 11.238281-3.171875l97.710938-49.335937h262.132812c65.785156 0 119.308594-53.527344 119.308594-119.324219v-109.238281c0-65.796875-53.523438-119.324219-119.308594-119.324219zm89.308594 228.5625c0 49.253906-40.0625 89.324219-89.308594 89.324219h-264.285156c-4 0-7.859375 1.089843-11.246094 3.160156l-87.160156 44.007813v-245.730469c0-49.253907 40.0625-89.324219 89.308594-89.324219h273.382812c49.246094 0 89.308594 40.070312 89.308594 89.324219zm0 0" data-original="#000000" class="active-path" data-old_color="#ffffff" fill="#ffffff"/><path d="m398.929688 70.316406h-285.859376c-8.28125 0-15 6.714844-15 15s6.71875 15 15 15h285.859376c8.28125 0 15-6.714844 15-15s-6.71875-15-15-15zm0 0" data-original="#000000" class="active-path" data-old_color="#ffffff" fill="#ffffff"/><path d="m113.070312 160.300781h223.386719c8.285157 0 15-6.71875 15-15 0-8.285156-6.714843-15-15-15h-223.386719c-8.28125 0-15 6.714844-15 15 0 8.28125 6.71875 15 15 15zm0 0" data-original="#000000" class="active-path" data-old_color="#ffffff" fill="#ffffff"/><path d="m398.929688 190.835938h-285.859376c-8.28125 0-15 6.71875-15 15 0 8.285156 6.71875 15 15 15h285.859376c8.28125 0 15-6.714844 15-15 0-8.28125-6.71875-15-15-15zm0 0" data-original="#000000" class="active-path" data-old_color="#ffffff" fill="#ffffff"/><path d="m398.929688 250.476562h-91.695313c-8.285156 0-15 6.714844-15 15 0 8.28125 6.714844 15 15 15h91.695313c8.28125 0 15-6.71875 15-15 0-8.285156-6.71875-15-15-15zm0 0" data-original="#000000" class="active-path" data-old_color="#ffffff" fill="#ffffff"/></g> </svg>
