<?xml version="1.0"?>
<svg xmlns="http://www.w3.org/2000/svg" xmlns:xlink="http://www.w3.org/1999/xlink" version="1.1" id="Capa_1" x="0px" y="0px" viewBox="0 0 225 225" style="enable-background:new 0 0 225 225;" xml:space="preserve" width="512px" height="512px" class=""><g><g>
	<circle cx="112.5" cy="196.649" r="7.651" data-original="#1D1D1B" class="active-path" data-old_color="#ffffff" fill="#ffffff"/>
	<path d="M156.635,0H68.365C55.542,0,45.111,10.432,45.111,23.254v178.492   c0,12.822,10.432,23.254,23.254,23.254h88.271c12.822,0,23.254-10.432,23.254-23.254V23.254C179.889,10.432,169.458,0,156.635,0z    M60.111,45.503h104.778v124.896H60.111V45.503z M68.365,15h88.271c4.551,0,8.254,3.703,8.254,8.254v7.249H60.111v-7.249   C60.111,18.703,63.813,15,68.365,15z M156.635,210H68.365c-4.551,0-8.254-3.703-8.254-8.254v-16.348h104.778v16.348   C164.889,206.297,161.187,210,156.635,210z" data-original="#1D1D1B" class="active-path" data-old_color="#ffffff" fill="#ffffff"/>
</g></g> </svg>
